# xmcd
#
# Track frame offsets:
#	150
#	10377
#	23120
#	37273
#	49054
#	61733
#	92318
#	105078
#	133194
#	146944
#	157048
#	170890
#	184597
#	195496
#	206779
#	216982
#	236395
#	248480
#
# Disc length: 3494 seconds
#
# Revision: 2
# Processed by: cddbd v1.5.2PL0 Copyright (c) Steve Scherf et al.
# Submitted via: EasyCDDAExtractor 16.0.6.1
#
DISCID=fb0da412
DTITLE=Ray Charles - Georgia On My Mind [CD1 Of 2)
DYEAR=2004
DGENRE=R&B
TTITLE0=Ain't That Fine
TTITLE1=Baby Won't You Please Come Home
TTITLE2=Blues Is My Middle Name
TTITLE3=Can't You See Darlin'
TTITLE4=Don't Put All Your Dreams In 1 Basket
TTITLE5=Georgia On My Mind
TTITLE6=Heartbreaker
TTITLE7=I Got A Woman
TTITLE8=I'm Going Down To The River
TTITLE9=I'm Moving On
TTITLE10=Kiss Me Baby
TTITLE11=Late In The Evening Blues
TTITLE12=Sentimental Blues
TTITLE13=She's On The Ball
TTITLE14=Sitting On The Top Of The World
TTITLE15=Talkin' About You
TTITLE16=Tell Me How Do You Feel
TTITLE17=This Love Of Mine
EXTD=
EXTT0=
EXTT1=
EXTT2=
EXTT3=
EXTT4=
EXTT5=
EXTT6=
EXTT7=
EXTT8=
EXTT9=
EXTT10=
EXTT11=
EXTT12=
EXTT13=
EXTT14=
EXTT15=
EXTT16=
EXTT17=
PLAYORDER=
